<svg id="Capa_1" data-name="Capa 1" xmlns="http://www.w3.org/2000/svg" xmlns:xlink="http://www.w3.org/1999/xlink" viewBox="0 0 427.06 427.06"><defs><style>.cls-1{fill:url(#Degradado_sin_nombre_7);}</style><linearGradient id="Degradado_sin_nombre_7" x1="-49.98" y1="459.74" x2="346.79" y2="89.01" gradientUnits="userSpaceOnUse"><stop offset="0" stop-color="#ed1d1b"/><stop offset="0.08" stop-color="#bd1d1b"/><stop offset="0.2" stop-color="#7a1d1b"/><stop offset="0.25" stop-color="#601d1b"/><stop offset="0.31" stop-color="#5b1b1a"/><stop offset="0.38" stop-color="#4c1715"/><stop offset="0.46" stop-color="#320f0e"/><stop offset="0.55" stop-color="#100504"/><stop offset="0.58"/><stop offset="0.64" stop-color="#030101"/><stop offset="0.68" stop-color="#0d0303"/><stop offset="0.72" stop-color="#1e0706"/><stop offset="0.76" stop-color="#360c0b"/><stop offset="0.79" stop-color="#541311"/><stop offset="0.83" stop-color="#791b19"/><stop offset="0.83" stop-color="#821d1b"/></linearGradient></defs><path class="cls-1" d="M427.06,383.63V43.43A43.48,43.48,0,0,0,383.63,0H43.43A43.48,43.48,0,0,0,0,43.43v340.2a43.47,43.47,0,0,0,43.43,43.42h340.2A43.48,43.48,0,0,0,427.06,383.63ZM94.84,377a44.77,44.77,0,1,1,44.76-44.77A44.82,44.82,0,0,1,94.84,377Zm0-237.39A44.77,44.77,0,1,1,139.6,94.83,44.82,44.82,0,0,1,94.84,139.6ZM216.5,254.94a44.77,44.77,0,1,1,44.77-44.77A44.83,44.83,0,0,1,216.5,254.94ZM332.22,377A44.77,44.77,0,1,1,377,332.22,44.82,44.82,0,0,1,332.22,377Zm0-237.39A44.77,44.77,0,1,1,377,94.83,44.82,44.82,0,0,1,332.22,139.6Z"/></svg>